<?xml version="1.0" encoding="UTF-8"?>
<!--Generator: Apple Native CoreSVG 175.5-->
<!DOCTYPE svg
PUBLIC "-//W3C//DTD SVG 1.1//EN"
       "http://www.w3.org/Graphics/SVG/1.1/DTD/svg11.dtd">
<svg version="1.1" xmlns="http://www.w3.org/2000/svg" xmlns:xlink="http://www.w3.org/1999/xlink" width="11.7178" height="11.5146">
 <g>
  <rect height="11.5146" opacity="0" width="11.7178" x="0" y="0"/>
  <path d="M4.56714 11.5146C4.99878 11.5146 5.33838 11.3464 5.57007 10.9973L11.4797 1.9519C11.6479 1.698 11.7178 1.45996 11.7178 1.24097C11.7178 0.647461 11.2703 0.21582 10.6641 0.21582C10.2451 0.21582 9.98804 0.361816 9.73096 0.761719L4.54175 8.95654L1.9043 5.6875C1.67261 5.40186 1.41553 5.2749 1.06006 5.2749C0.444336 5.2749 0 5.71606 0 6.31274C0 6.57617 0.0825195 6.81104 0.307861 7.07446L3.58643 11.0449C3.8562 11.3655 4.16406 11.5146 4.56714 11.5146Z" fill="#ffffff" fill-opacity="0.85"/>
 </g>
</svg>
